<svg width="42" height="42" viewBox="0 0 42 42" fill="none" xmlns="http://www.w3.org/2000/svg">
<path d="M9.625 17.5C9.8385 17.5 10.038 17.4002 10.4352 17.2025L13.629 15.6135C15.043 14.9082 15.75 14.5565 15.75 14V7M9.625 17.5C9.4115 17.5 9.212 17.4002 8.81475 17.2025L5.621 15.6135C4.207 14.9082 3.5 14.5565 3.5 14V7M9.625 17.5V10.5M15.75 7C15.75 6.4435 15.043 6.09 13.629 5.3865L10.4352 3.7975C10.038 3.59975 9.84025 3.5 9.625 3.5C9.4115 3.5 9.212 3.59975 8.81475 3.7975L5.621 5.3865C4.207 6.09175 3.5 6.4435 3.5 7M15.75 7C15.75 7.5565 15.043 7.91 13.629 8.6135L10.4352 10.2025C10.038 10.4002 9.84025 10.5 9.625 10.5M3.5 7C3.5 7.5565 4.207 7.91 5.621 8.6135L8.81475 10.2025C9.212 10.4002 9.40975 10.5 9.625 10.5M32.375 17.5C32.5885 17.5 32.788 17.4002 33.1852 17.2025L36.379 15.6135C37.793 14.9082 38.5 14.5565 38.5 14V7M32.375 17.5C32.1615 17.5 31.962 17.4002 31.5648 17.2025L28.371 15.6135C26.957 14.9082 26.25 14.5565 26.25 14V7M32.375 17.5V10.5M38.5 7C38.5 6.4435 37.793 6.09 36.379 5.3865L33.1852 3.7975C32.788 3.59975 32.5903 3.5 32.375 3.5C32.1615 3.5 31.962 3.59975 31.5648 3.7975L28.371 5.3865C26.957 6.09175 26.25 6.4435 26.25 7M38.5 7C38.5 7.5565 37.793 7.91 36.379 8.6135L33.1852 10.2025C32.788 10.4002 32.5903 10.5 32.375 10.5M26.25 7C26.25 7.5565 26.957 7.91 28.371 8.6135L31.5648 10.2025C31.962 10.4002 32.1597 10.5 32.375 10.5M20.125 10.5H21.875M3.5 21V27.125C3.5 29.582 3.5 30.8123 4.08975 31.6943C4.34517 32.0766 4.67342 32.4048 5.05575 32.6603C5.93775 33.25 7.168 33.25 9.625 33.25M38.5 21V27.125C38.5 29.582 38.5 30.8123 37.9103 31.6943C37.6548 32.0766 37.3266 32.4048 36.9443 32.6603C36.0623 33.25 34.832 33.25 32.375 33.25M21 38.5C21.2135 38.5 21.413 38.402 21.8103 38.2025L25.004 36.6135C26.418 35.91 27.125 35.5565 27.125 35V28M21 38.5C20.7865 38.5 20.587 38.402 20.1897 38.2025L16.996 36.6135C15.582 35.91 14.875 35.5565 14.875 35V28M21 38.5V31.5M27.125 28C27.125 27.4435 26.418 27.09 25.004 26.3865L21.8103 24.7975C21.413 24.598 21.2153 24.5 21 24.5C20.7865 24.5 20.587 24.598 20.1897 24.7975L16.996 26.3865C15.582 27.09 14.875 27.4435 14.875 28M27.125 28C27.125 28.5565 26.418 28.91 25.004 29.6135L21.8103 31.2025C21.413 31.402 21.2153 31.5 21 31.5M14.875 28C14.875 28.5565 15.582 28.91 16.996 29.6135L20.1897 31.2025C20.587 31.402 20.7847 31.5 21 31.5" stroke="#007AFF" stroke-width="1.5" stroke-linecap="round" stroke-linejoin="round"/>
</svg>
