<svg width="75" height="70" viewBox="0 0 75 70" fill="none" xmlns="http://www.w3.org/2000/svg">
<g clip-path="url(#clip0_81_9579)">
<path fill-rule="evenodd" clip-rule="evenodd" d="M3.31341 57.5979C7.82103 40.1673 15.2107 24.1709 27.5349 10.63C14.4324 23.7833 7.18184 39.8486 3.31341 57.5979ZM0.00865057 64.3161C0.393353 59.3615 1.6973 54.2725 3.1386 49.2092C6.3393 37.9622 11.3286 27.5473 18.1753 17.9995C22.96 11.327 28.51 5.50762 36.0792 1.75531C38.5045 0.553068 40.6029 0.810941 42.7874 1.97283C44.0123 2.62365 44.4077 4.54337 43.3517 4.93925C40.673 5.94325 39.4487 8.34422 37.6876 10.1996C32.3475 15.8249 27.193 21.5992 23.073 28.2004C18.0701 36.215 14.433 44.806 11.6098 53.7562C10.2845 57.9581 8.86752 62.135 7.87455 66.4334C7.74433 66.9983 6.93211 67.3492 7.28947 68.1134C7.32752 68.1953 7.15925 68.3789 7.07244 68.5058C6.79536 68.911 2.66471 69.5823 2.24671 69.2946C0.28811 67.9468 -0.0662683 67.2106 0.00865057 64.3161Z" fill="#0A77FF"/>
<path fill-rule="evenodd" clip-rule="evenodd" d="M43.3818 26.8723L43.0495 26.5935C42.1485 27.6419 41.2476 28.6904 40.3466 29.7388C40.4402 29.8167 40.5332 29.8959 40.6268 29.9744C41.5449 28.9402 42.4637 27.9066 43.3818 26.8723ZM38.678 32.1563C35.2258 36.507 32.1225 41.0822 30.278 46.3851C32.5757 41.3521 35.5878 36.7415 38.678 32.1563ZM50.8986 22.954C51.5698 24.9102 50.4017 25.759 49.2152 26.7678C48.0945 27.7211 47.6864 29.2733 46.6201 30.379C45.3057 31.7434 43.9351 33.2289 43.0495 34.79C42.3713 35.9849 41.0012 36.5791 40.6997 38.1065C40.4574 39.3333 39.7122 40.5772 38.4115 41.2369C37.8677 41.5134 37.8807 42.1105 37.6787 42.5972C37.1604 43.8459 36.7825 45.2073 35.4166 45.9001C35.2069 46.007 34.9421 46.3053 34.9534 46.5002C35.0671 48.3779 33.3475 49.2757 32.7036 50.7458C32.4051 51.4269 31.7174 51.6607 30.9651 51.6991C30.3141 51.7328 29.1999 52.0872 29.0975 51.8887C28.5389 50.799 27.706 49.8835 28.1041 48.3135C29.5026 42.7898 32.3305 38.0327 35.5297 33.435C38.7609 28.7925 42.6035 24.6905 46.818 20.9339C48.4487 19.4809 50.2299 18.2063 52.2332 17.2802C53.6619 16.6192 54.9994 17.061 56.3233 17.6127C56.8286 17.823 57.0223 18.2577 56.998 18.781C56.9755 19.2701 56.6307 19.4981 56.2386 19.7278C54.8413 20.5476 53.1549 21.0402 52.7461 22.9711C52.6614 23.3698 52.235 23.8417 51.7131 23.8594C51.212 23.8771 51.6622 23.1518 50.8986 22.954Z" fill="#0A77FF"/>
<path fill-rule="evenodd" clip-rule="evenodd" d="M62.5581 35.2968C63.619 34.7418 64.4769 34.8228 64.9817 34.1437C65.1859 33.8691 65.6802 33.5531 65.2507 33.1649C64.9029 32.8507 64.4354 32.99 64.1331 33.3258C63.6885 33.8207 63.298 34.3629 62.5581 35.2968ZM58.9183 38.8791C56.5554 41.3182 54.3669 43.8856 53.278 47.198C54.8828 44.2354 56.9452 41.5917 58.9183 38.8791ZM63.6494 38.7474C64.5988 39.5699 64.1792 39.8999 63.5332 40.6933C62.533 41.921 61.6173 43.3225 60.3527 44.1713C58.735 45.2568 58.4205 47.2476 56.8787 48.3127C55.5644 49.2204 53.6164 49.1329 52.5409 48.2025C51.6089 47.3957 52.1056 46.6477 52.3828 45.9155C53.8423 42.0592 56.4666 39.0225 59.4295 36.2622C61.5718 34.2673 64.0129 32.646 66.4085 30.9718C67.1853 30.4284 67.4024 30.7782 67.4975 31.5273C67.5395 31.8596 67.3848 32.2852 67.9171 32.5598C68.2235 32.0153 68.5222 31.4912 68.8146 30.9636C68.8846 30.8371 69.0177 30.6704 68.9827 30.5713C68.5923 29.463 68.7516 29.2392 70.2584 28.9489C70.1633 29.4881 69.5038 29.6548 69.5248 30.2191C70.0098 30.7561 70.1837 29.2742 70.7235 29.9918C71.1799 30.5998 70.999 31.5378 70.6996 31.7436C69.5768 32.5143 69.4834 33.9198 68.5613 34.796C68.2801 35.063 68.8 35.9631 67.8009 35.9596C67.2512 35.9585 66.8304 37.0527 66.1407 36.1788C66.3408 36.844 65.5892 37.0369 65.4853 37.3733C65.1953 38.3055 64.4494 38.4413 63.6494 38.7474Z" fill="#0A77FF"/>
<path fill-rule="evenodd" clip-rule="evenodd" d="M71.2163 28.1783C72.1763 28.3658 72.9396 29.1433 73.3036 27.8558C73.4636 27.2914 73.985 27.6101 74.223 27.9858C74.5903 28.567 75.0663 29.2445 74.5976 29.862C74.0503 30.5845 73.3636 31.477 72.5596 31.6808C71.927 31.8401 71.5596 30.7933 71.633 30.0389C71.6896 29.4476 72.057 28.8526 71.2163 28.1783Z" fill="#0A77FF"/>
</g>
<defs>
<clipPath id="clip0_81_9579">
<rect width="75" height="70" fill="white"/>
</clipPath>
</defs>
</svg>
