<svg width="112" height="29" viewBox="0 0 112 29" fill="none" xmlns="http://www.w3.org/2000/svg">
<path d="M5.67691 20.0497C5.29006 20.0505 4.90992 19.9487 4.57533 19.7545C4.24073 19.5604 3.96367 19.2809 3.77246 18.9446C3.58417 18.6107 3.49026 18.2318 3.5008 17.8486C3.51134 17.4654 3.62592 17.0923 3.83228 16.7693L7.75419 10.6105C7.95493 10.2795 8.23991 10.0077 8.58005 9.82292C8.92019 9.63811 9.30329 9.54689 9.69022 9.55858C10.0769 9.56785 10.4541 9.67967 10.7833 9.88261C11.1125 10.0855 11.3819 10.3723 11.5639 10.7136C11.9295 11.4049 11.8838 12.2366 11.4459 12.8856L7.52653 19.0443C7.32777 19.354 7.05404 19.6085 6.73071 19.7843C6.40738 19.9601 6.04492 20.0513 5.67691 20.0497Z" fill="#F62B54"/>
<path d="M12.404 20.0497C11.613 20.0497 10.8851 19.6268 10.5029 18.9471C10.315 18.6141 10.2213 18.2362 10.2318 17.854C10.2424 17.4718 10.3567 17.0997 10.5627 16.7776L14.4771 10.633C14.6749 10.2973 14.9589 10.0207 15.2996 9.83176C15.6403 9.64285 16.0254 9.54853 16.4148 9.55858C17.2125 9.57603 17.9354 10.0222 18.301 10.7202C18.6641 11.4182 18.6109 12.2549 18.1597 12.9022L14.2461 19.0468C14.048 19.3552 13.7754 19.6087 13.4534 19.784C13.1315 19.9593 12.7706 20.0507 12.404 20.0497Z" fill="#FFCC00"/>
<path d="M18.9807 20.1012C20.0958 20.1012 20.9998 19.2162 20.9998 18.1245C20.9998 17.0327 20.0958 16.1477 18.9807 16.1477C17.8655 16.1477 16.9616 17.0327 16.9616 18.1245C16.9616 19.2162 17.8655 20.1012 18.9807 20.1012Z" fill="#00CA72"/>
<path d="M106.697 16.2624C107.307 16.2624 107.672 16.6961 107.672 17.4066V19.8411H108.5V17.3509C108.5 16.1427 107.931 15.4423 106.861 15.4423C106.442 15.4423 105.777 15.557 105.381 16.3272C105.289 16.1 105.137 15.902 104.941 15.7542C104.746 15.6065 104.514 15.5145 104.27 15.488C104.116 15.4599 103.96 15.4507 103.805 15.4606C103.464 15.488 102.857 15.6999 102.63 16.1801V15.5345H101.801V19.8411H102.63V17.5171C102.63 16.613 103.222 16.2624 103.814 16.2624C104.37 16.2624 104.734 16.687 104.734 17.3974V19.8411H105.559V17.5171C105.559 16.7975 105.991 16.2541 106.697 16.2624ZM98.7575 19.1216C99.1364 19.1299 99.502 18.9787 99.7671 18.7045C100.033 18.4302 100.174 18.0572 100.16 17.6741C100.16 16.8066 99.522 16.2624 98.7575 16.2624C97.9923 16.2624 97.355 16.8066 97.355 17.6741C97.34 18.0563 97.4813 18.4286 97.7455 18.702C98.0097 18.9762 98.3737 19.1282 98.7509 19.1216H98.7575ZM98.7575 19.9292C97.5461 19.9292 96.5348 19.0343 96.5348 17.6691C96.5348 16.3039 97.5461 15.4373 98.7575 15.4373C99.969 15.4373 100.989 16.3039 100.989 17.6691C100.989 19.0343 99.9632 19.9334 98.7517 19.9334L98.7575 19.9292ZM92.2681 17.6691L92.2598 17.6741C92.2598 16.3089 93.2976 15.4423 94.5174 15.4373C94.8238 15.4314 95.1281 15.4898 95.4105 15.6089C95.6929 15.728 95.9471 15.9051 96.1568 16.1286L95.5286 16.6637C95.3952 16.5327 95.2371 16.4294 95.0636 16.3598C94.89 16.2902 94.7044 16.2557 94.5174 16.2582C93.753 16.2582 93.0882 16.8025 93.0882 17.6691C93.0882 18.2549 93.4364 18.7826 93.9706 19.0069C94.5049 19.2313 95.1198 19.1066 95.5286 18.6928L96.1659 19.2279C95.9556 19.4538 95.7002 19.6329 95.4162 19.7537C95.1322 19.8745 94.826 19.9343 94.5174 19.9292C93.3067 19.9292 92.2681 19.0343 92.2681 17.6691ZM89.615 19.0144C89.6141 18.9391 89.6281 18.8644 89.6561 18.7945C89.6841 18.7246 89.7256 18.6609 89.7782 18.607C89.8308 18.5532 89.8935 18.5102 89.9628 18.4806C90.032 18.451 90.1064 18.4353 90.1817 18.4344C90.257 18.4353 90.3314 18.451 90.4006 18.4806C90.4698 18.5102 90.5325 18.5532 90.5852 18.607C90.6378 18.6609 90.6793 18.7246 90.7073 18.7945C90.7353 18.8644 90.7492 18.9391 90.7484 19.0144C90.741 19.1602 90.6782 19.2977 90.5729 19.3988C90.4676 19.5 90.3277 19.5571 90.1817 19.5586C90.0357 19.5571 89.8958 19.5 89.7905 19.3988C89.6851 19.2977 89.6224 19.1602 89.615 19.0144Z" fill="#333333"/>
<path fill-rule="evenodd" clip-rule="evenodd" d="M91.8817 10.0596H88.9312L86.863 15.3916L84.8057 10.0596H81.8551L85.4421 18.4851L83.2111 24.0555H86.1401L91.8817 10.0596ZM73.9373 14.746C73.9373 16.0921 75.1139 16.9778 76.2697 16.9778C77.4055 16.9778 78.5215 16.1535 78.5215 14.7451C78.5215 13.3367 77.4055 12.5117 76.2697 12.5117C75.1139 12.5117 73.9373 13.3982 73.9373 14.7451V14.746ZM78.5215 18.3845C77.9232 19.2902 76.5273 19.6326 75.811 19.6326C73.4396 19.6326 71.0673 17.763 71.0673 14.7451C71.0673 11.7281 73.4388 9.85854 75.811 9.85854C76.4084 9.85854 77.8044 10.058 78.5215 11.1049V10.0629H81.2718V19.4523L78.5215 19.4514V18.3845ZM70.2846 19.4506H67.5343V18.284C67.0748 19.1482 65.9605 19.6517 64.8039 19.6517C62.4117 19.6517 60.2987 17.7414 60.2987 14.7834C60.2987 11.7696 62.4117 9.85688 64.8039 9.85688C65.9589 9.85688 67.0765 10.3388 67.5343 11.2038V4.94452H70.2846V19.4506ZM67.4745 14.7244C67.4745 13.3168 66.4583 12.4917 65.3224 12.4917C64.1458 12.4917 63.1687 13.3766 63.1687 14.7244C63.1687 16.1153 64.1458 16.9961 65.3216 16.9961C66.479 16.9978 67.4745 16.0721 67.4745 14.7244ZM53.4985 14.4817C53.4985 13.0542 54.2363 12.5715 55.2127 12.5715C56.1491 12.5715 56.8271 13.1947 56.8271 14.441V19.4489H59.5974V13.8386C59.5974 11.1647 58.2812 9.85688 56.1882 9.85688C55.0922 9.85688 53.9962 10.4801 53.4977 11.4256V10.0596H50.7291V19.4489H53.4985V14.4817ZM45.1038 19.6101C42.4731 19.6101 40.2787 17.6799 40.2787 14.7235C40.2787 11.7655 42.4706 9.85439 45.1038 9.85439C47.7369 9.85439 49.948 11.7655 49.948 14.7235C49.948 17.6816 47.7344 19.611 45.1038 19.611V19.6101ZM45.1038 16.8764C46.2587 16.8764 47.2168 16.0306 47.2168 14.7244C47.2168 13.4572 46.2596 12.5922 45.1038 12.5922C44.8255 12.5879 44.5492 12.6402 44.2918 12.7461C44.0344 12.8519 43.8012 13.0091 43.6065 13.208C43.4106 13.4079 43.2569 13.6452 43.1546 13.9057C43.0522 14.1662 43.0033 14.4446 43.0107 14.7244C43.0115 16.0322 43.9679 16.8764 45.1038 16.8764ZM35.3123 12.5723C36.1291 12.5723 36.847 13.2163 36.847 14.4419V19.4506H39.5973V14.1178C39.5973 11.2827 38.2188 9.85522 36.0094 9.85522C35.353 9.85522 34.1166 10.0546 33.2192 11.5237C32.7007 10.4377 31.7045 9.87433 30.2321 9.87433C29.7209 9.87173 29.2197 10.0164 28.7886 10.2911C28.3574 10.5657 28.0145 10.9588 27.8008 11.4232V10.0605H25.0289V19.4498H27.7983V14.4817C27.7983 13.0542 28.5761 12.5715 29.4128 12.5715C30.2105 12.5715 30.9267 13.1947 30.9475 14.3812V19.4498H33.7178V14.4817C33.7178 13.1166 34.4357 12.5731 35.3123 12.5731V12.5723Z" fill="#333333"/>
</svg>
