<svg width="113" height="29" viewBox="0 0 113 29" fill="none" xmlns="http://www.w3.org/2000/svg">
<path d="M40.9637 19.8985L38.091 13.8734C37.4051 12.4496 36.7008 10.8323 36.4604 10.072L36.4049 10.1275C36.4974 11.2025 36.5159 12.5564 36.5344 13.6868L36.6083 19.8985H34.5153V7.06797H36.9242L40.0375 13.3323C40.5593 14.3974 40.9992 15.5006 41.3536 16.6325L41.4091 16.577C41.3536 15.9278 41.2241 14.0926 41.2241 12.9237L41.1871 7.06512H43.2076V19.8957L40.9637 19.8985Z" fill="black"/>
<path d="M47.0109 15.7712V15.9135C47.0109 17.212 47.4933 18.583 49.3273 18.583C50.1981 18.583 50.958 18.2684 51.6623 17.6562L52.4591 18.8991C51.5246 19.7118 50.325 20.154 49.0869 20.142C46.4375 20.142 44.7699 18.2328 44.7699 15.2287C44.7699 13.5786 45.1213 12.4838 45.9381 11.557C46.6979 10.6856 47.6242 10.2955 48.8108 10.2955C49.7626 10.2655 50.6878 10.6118 51.3862 11.2594C52.2015 12.0012 52.6099 13.1501 52.6099 15.3384V15.7655L47.0109 15.7712ZM48.808 11.8403C47.6597 11.8403 47.0294 12.7486 47.0294 14.2691H50.4941C50.4941 12.7515 49.8282 11.8403 48.808 11.8403Z" fill="black"/>
<path d="M63.4593 19.9412H61.5441L60.3958 15.6217C60.0999 14.5098 59.784 13.059 59.784 13.059H59.747C59.747 13.059 59.6047 13.9858 59.1352 15.7099L58.0054 19.937H56.0959L53.5348 10.6472L55.5552 10.3625L56.574 14.9055C56.833 16.073 57.0564 17.3714 57.0564 17.3714H57.1119C57.2485 16.5224 57.428 15.6809 57.6497 14.85L58.8549 10.5119H60.8569L61.914 14.7432C62.3039 16.2638 62.5074 17.4127 62.5074 17.4127H62.5629C62.5629 17.4127 62.7848 15.989 63.0267 14.8913L63.99 10.5148H66.103L63.4593 19.9412Z" fill="black"/>
<path d="M77.9725 19.8985L76.8613 17.9139C75.9734 16.3392 75.3786 15.4494 74.6743 14.7375C74.5715 14.6166 74.4434 14.5196 74.2991 14.4534C74.1548 14.3873 73.9978 14.3535 73.8391 14.3546V19.8985H71.7461V7.06797H75.6561C78.5289 7.06797 79.8251 8.73657 79.8251 10.7397C79.8251 12.5749 78.6398 14.2635 76.6379 14.2635C77.1017 14.5041 77.954 15.747 78.6199 16.8261L80.5095 19.9042L77.9725 19.8985ZM75.0073 8.79352H73.8391V12.854H74.9319C76.0431 12.854 76.6393 12.7116 77.0263 12.3158C77.3778 11.9641 77.5955 11.426 77.5955 10.7583C77.6026 9.45982 76.8983 8.79352 75.0073 8.79352Z" fill="black"/>
<path d="M83.3225 15.7712V15.9135C83.3225 17.212 83.8049 18.583 85.6389 18.583C86.5097 18.583 87.2695 18.2684 87.9739 17.6562L88.7707 18.8991C87.8362 19.7118 86.6366 20.154 85.3985 20.142C82.7491 20.142 81.0815 18.2328 81.0815 15.2287C81.0815 13.5786 81.4329 12.4838 82.2497 11.557C83.0095 10.6856 83.9358 10.2955 85.1224 10.2955C86.0742 10.2655 86.9994 10.6118 87.6978 11.2594C88.5131 12.0012 88.9215 13.1501 88.9215 15.3384V15.7655L83.3225 15.7712ZM85.121 11.8403C83.9728 11.8403 83.3424 12.7486 83.3424 14.2691H86.8014C86.8014 12.7515 86.1398 11.8403 85.121 11.8403Z" fill="black"/>
<path d="M92.7277 20.1121C90.6702 20.1121 90.6702 18.2613 90.6702 17.4611V9.46836C90.6939 8.55036 90.6344 7.6321 90.4923 6.72485L92.5868 6.26072C92.7291 6.83021 92.7533 7.61468 92.7533 8.83765V16.792C92.7533 18.0534 92.8088 18.257 92.9567 18.4791C93.0377 18.5718 93.1464 18.6358 93.2667 18.6614C93.387 18.6871 93.5124 18.6731 93.6241 18.6215L93.957 19.8829C93.5663 20.0396 93.1485 20.1175 92.7277 20.1121Z" fill="black"/>
<path d="M96.2706 9.13379C96.0951 9.13212 95.9217 9.0957 95.7603 9.02661C95.599 8.95752 95.4529 8.85713 95.3305 8.73125C95.2082 8.60537 95.1119 8.45648 95.0474 8.29318C94.9828 8.12988 94.9512 7.95541 94.9544 7.77983C94.9565 7.51331 95.0377 7.25341 95.1877 7.03316C95.3377 6.81292 95.5498 6.64228 95.7969 6.54293C96.0441 6.44358 96.3152 6.42002 96.5758 6.47522C96.8364 6.53043 97.0747 6.66192 97.2604 6.85298C97.4462 7.04404 97.5709 7.28604 97.6189 7.54822C97.6668 7.8104 97.6357 8.08092 97.5296 8.3254C97.4235 8.56987 97.2472 8.77726 97.023 8.92121C96.7988 9.06515 96.5369 9.13914 96.2706 9.13379ZM95.2518 19.9071V10.6728L97.3093 10.3012V19.9057L95.2518 19.9071Z" fill="black"/>
<path d="M103.143 20.1548C100.582 20.1548 99.159 18.3566 99.159 15.3341C99.159 11.9172 101.198 10.2913 103.285 10.2913C104.304 10.2913 105.045 10.5319 105.879 11.3107L104.865 12.6632C104.308 12.162 103.827 11.9399 103.29 11.9399C102.977 11.9346 102.67 12.0214 102.406 12.1895C102.143 12.3576 101.934 12.5996 101.807 12.8853C101.522 13.4548 101.419 14.3318 101.419 15.4992C101.419 16.7806 101.622 17.595 102.049 18.0619C102.206 18.2345 102.398 18.3718 102.612 18.4645C102.826 18.5573 103.058 18.6035 103.291 18.6001C103.94 18.6001 104.572 18.2855 105.181 17.6733L106.144 18.9162C105.292 19.7647 104.402 20.1548 103.143 20.1548Z" fill="black"/>
<path d="M107.881 20.1121C107.609 20.1135 107.342 20.034 107.115 19.8835C106.888 19.7331 106.71 19.5186 106.605 19.2672C106.5 19.0157 106.471 18.7387 106.524 18.4712C106.576 18.2036 106.707 17.9577 106.899 17.7644C107.091 17.5711 107.336 17.4393 107.603 17.3856C107.87 17.3319 108.147 17.3588 108.399 17.4627C108.651 17.5667 108.866 17.7432 109.018 17.9697C109.169 18.1963 109.25 18.4628 109.25 18.7354C109.251 18.9158 109.216 19.0945 109.147 19.2614C109.079 19.4284 108.978 19.5801 108.851 19.708C108.724 19.8359 108.573 19.9374 108.406 20.0068C108.24 20.0761 108.062 20.1119 107.881 20.1121ZM107.881 17.632C107.66 17.6223 107.442 17.6791 107.253 17.7949C107.065 17.9108 106.915 18.0805 106.824 18.2821C106.733 18.4837 106.704 18.708 106.742 18.9261C106.779 19.1442 106.881 19.346 107.034 19.5057C107.187 19.6653 107.385 19.7753 107.601 19.8217C107.817 19.868 108.042 19.8485 108.247 19.7656C108.453 19.6827 108.628 19.5403 108.751 19.3566C108.875 19.173 108.94 18.9566 108.94 18.7354C108.944 18.593 108.919 18.4513 108.868 18.3184C108.817 18.1856 108.74 18.0642 108.641 17.9614C108.543 17.8587 108.425 17.7765 108.294 17.7197C108.164 17.6629 108.024 17.634 107.881 17.632ZM108.152 19.4985C108.092 19.3945 108.066 19.3561 108.009 19.2422C107.857 18.9646 107.81 18.8863 107.755 18.8649C107.74 18.8573 107.723 18.8534 107.706 18.8535V19.4985H107.403V17.9537H107.972C108.033 17.9496 108.093 17.9584 108.15 17.9795C108.207 18.0007 108.259 18.0337 108.302 18.0764C108.345 18.1191 108.378 18.1705 108.4 18.2272C108.422 18.2838 108.431 18.3445 108.428 18.4051C108.436 18.507 108.406 18.6084 108.341 18.688C108.277 18.7676 108.185 18.8193 108.083 18.8322C108.107 18.8517 108.128 18.8742 108.146 18.8991C108.234 19.0101 108.516 19.4985 108.516 19.4985H108.152ZM107.994 18.2242C107.937 18.2085 107.879 18.2008 107.82 18.2015H107.709V18.62H107.813C107.947 18.62 108.005 18.6044 108.046 18.5674C108.086 18.5256 108.107 18.4698 108.106 18.4122C108.11 18.3729 108.101 18.3333 108.081 18.2994C108.061 18.2655 108.03 18.2391 107.994 18.2242Z" fill="black"/>
<path d="M27.2757 12.014C26.1873 7.0096 20.1899 4.06677 13.878 5.43923C7.56618 6.8117 3.33315 11.9827 4.42022 16.9856C5.50729 21.9886 11.5061 24.9342 17.8165 23.5603C24.1269 22.1865 28.3628 17.0226 27.2757 12.014ZM15.8487 19.1126C14.9369 19.1126 14.0456 18.8421 13.2875 18.3352C12.5293 17.8284 11.9385 17.1079 11.5895 16.2651C11.2406 15.4222 11.1493 14.4947 11.3272 13.5999C11.5051 12.7051 11.9441 11.8831 12.5889 11.238C13.2336 10.5929 14.055 10.1536 14.9493 9.97557C15.8436 9.79758 16.7705 9.88893 17.6129 10.2381C18.4553 10.5872 19.1753 11.1784 19.6818 11.937C20.1884 12.6956 20.4588 13.5875 20.4588 14.4998C20.4588 15.1056 20.3395 15.7054 20.1079 16.2651C19.8762 16.8247 19.5366 17.3332 19.1085 17.7616C18.6804 18.1899 18.1722 18.5297 17.6129 18.7615C17.0536 18.9933 16.4541 19.1126 15.8487 19.1126Z" fill="#008C99"/>
<path d="M16.8703 8.04179C15.5612 8.04208 14.2816 8.43076 13.1933 9.15869C12.105 9.88662 11.2568 10.9211 10.756 12.1314C10.2552 13.3416 10.1244 14.6733 10.3799 15.9579C10.6355 17.2426 11.266 18.4226 12.1918 19.3487C13.1175 20.2748 14.297 20.9055 15.5809 21.1609C16.8649 21.4164 18.1957 21.2851 19.4051 20.7838C20.6145 20.2825 21.6482 19.4336 22.3755 18.3444C23.1027 17.2553 23.4909 15.9748 23.4909 14.6649C23.4909 13.7951 23.3197 12.9337 22.9869 12.13C22.6542 11.3264 22.1665 10.5962 21.5517 9.98117C20.9369 9.36613 20.207 8.8783 19.4038 8.54554C18.6006 8.21278 17.7397 8.04161 16.8703 8.04179ZM15.8501 18.5289C15.0537 18.5289 14.2752 18.2926 13.613 17.8499C12.9508 17.4072 12.4347 16.7779 12.1299 16.0417C11.8251 15.3054 11.7454 14.4953 11.9008 13.7137C12.0561 12.9322 12.4397 12.2142 13.0028 11.6508C13.5659 11.0873 14.2834 10.7035 15.0645 10.5481C15.8457 10.3926 16.6553 10.4724 17.3911 10.7774C18.1269 11.0823 18.7557 11.5987 19.1982 12.2613C19.6407 12.9239 19.8768 13.7029 19.8768 14.4998C19.8768 15.5681 19.4528 16.5927 18.6979 17.3483C17.9431 18.1039 16.9178 18.5285 15.8501 18.5289Z" fill="#70CCD3"/>
</svg>
