<svg width="113" height="29" viewBox="0 0 113 29" fill="none" xmlns="http://www.w3.org/2000/svg">
<path d="M31.7212 6.66729C30.8348 6.0564 29.678 5.75021 28.251 5.75021H22.7263C22.2889 5.75021 22.0472 5.96954 22.0013 6.40776L19.757 20.5299C19.7337 20.6686 19.7683 20.7955 19.8606 20.9108C19.9523 21.0264 20.0677 21.0838 20.2058 21.0838H22.83C23.2903 21.0838 23.5432 20.865 23.5897 20.4263L24.2111 16.6189C24.2338 16.4344 24.3147 16.2844 24.4529 16.1689C24.5909 16.0535 24.7636 15.9781 24.9708 15.9436C25.178 15.9093 25.3733 15.892 25.5578 15.892C25.7418 15.892 25.9603 15.9037 26.214 15.9267C26.4669 15.9496 26.6282 15.961 26.6973 15.961C28.6769 15.961 30.2306 15.4018 31.3588 14.2822C32.4864 13.1633 33.0508 11.6116 33.0508 9.62662C33.0508 8.26518 32.6072 7.27881 31.7212 6.66697V6.66729ZM28.8728 10.9077C28.7573 11.7155 28.4584 12.246 27.975 12.4999C27.4915 12.7542 26.801 12.8807 25.9033 12.8807L24.7638 12.9152L25.3509 9.21146C25.3968 8.95786 25.5463 8.8309 25.7997 8.8309H26.456C27.3763 8.8309 28.0443 8.96389 28.4586 9.22881C28.8728 9.49437 29.0109 10.0542 28.8728 10.9077Z" fill="#003087"/>
<path d="M90.0233 5.75H87.4685C87.2145 5.75 87.0651 5.87696 87.0195 6.13099L84.775 20.5304L84.7404 20.5996C84.7404 20.7155 84.7864 20.8246 84.8788 20.9285C84.9703 21.0322 85.086 21.0841 85.2239 21.0841H87.5032C87.9398 21.0841 88.1816 20.8653 88.2283 20.4266L90.4726 6.26948V6.23509C90.4725 5.91187 90.3224 5.75042 90.0233 5.75042V5.75Z" fill="#009CDE"/>
<path d="M59.1546 11.3235C59.1546 11.2084 59.1083 11.0986 59.0168 10.995C58.9245 10.8912 58.8208 10.839 58.706 10.839H56.0473C55.7936 10.839 55.5864 10.9549 55.4256 11.1851L51.7656 16.585L50.2463 11.3929C50.1307 11.024 49.8778 10.839 49.4868 10.839H46.8967C46.7813 10.839 46.6778 10.891 46.5863 10.995C46.4939 11.0986 46.4481 11.2086 46.4481 11.3235C46.4481 11.37 46.6726 12.0505 47.1214 13.3658C47.5701 14.6815 48.0535 16.1007 48.5715 17.6238C49.0895 19.1466 49.3598 19.9547 49.3829 20.0462C47.4952 22.6311 46.5518 24.0156 46.5518 24.1999C46.5518 24.5002 46.7011 24.65 47.0006 24.65H49.6593C49.9124 24.65 50.1195 24.5349 50.281 24.304L59.086 11.5657C59.1317 11.52 59.1546 11.4396 59.1546 11.3234V11.3235Z" fill="#003087"/>
<path d="M83.9124 10.839H81.2882C80.9655 10.839 80.7706 11.2199 80.7015 11.9815C80.1022 11.0587 79.0095 10.5967 77.4208 10.5967C75.7635 10.5967 74.3534 11.2199 73.1911 12.466C72.0285 13.7121 71.4475 15.1778 71.4475 16.8622C71.4475 18.2239 71.8445 19.3084 72.6385 20.1157C73.4327 20.9239 74.4972 21.3272 75.8328 21.3272C76.5003 21.3272 77.1793 21.1885 77.8699 20.9119C78.5604 20.635 79.1009 20.266 79.493 19.8043C79.493 19.8274 79.4695 19.9309 79.424 20.1154C79.3774 20.3004 79.3547 20.4393 79.3547 20.5308C79.3547 20.9004 79.504 21.0845 79.8037 21.0845H82.1864C82.6233 21.0845 82.8768 20.8657 82.9456 20.427L84.3615 11.3927C84.3842 11.2541 84.3498 11.1275 84.2579 11.012C84.1653 10.8969 84.0505 10.839 83.9124 10.839ZM79.4065 17.6582C78.8194 18.2351 78.1115 18.5234 77.2829 18.5234C76.615 18.5234 76.0745 18.3391 75.66 17.9697C75.2454 17.6013 75.0382 17.0936 75.0382 16.4467C75.0382 15.5935 75.326 14.8718 75.9018 14.2834C76.4764 13.6949 77.1907 13.4008 78.0424 13.4008C78.6865 13.4008 79.2218 13.5912 79.648 13.9717C80.0735 14.3526 80.2871 14.8776 80.2871 15.547C80.2869 16.3776 79.9934 17.0816 79.4065 17.6582Z" fill="#009CDE"/>
<path d="M44.687 10.839H42.0627C41.7399 10.839 41.5447 11.2199 41.4755 11.9815C40.854 11.0587 39.7605 10.5967 38.1952 10.5967C36.5378 10.5967 35.1277 11.2199 33.9653 12.466C32.8027 13.7121 32.2217 15.1778 32.2217 16.8622C32.2217 18.2239 32.6188 19.3084 33.413 20.1157C34.2072 20.9239 35.2716 21.3272 36.6069 21.3272C37.2512 21.3272 37.9191 21.1885 38.6096 20.9119C39.3001 20.635 39.8526 20.266 40.267 19.8043C40.1746 20.0809 40.1288 20.3233 40.1288 20.5308C40.1288 20.9004 40.2784 21.0845 40.5777 21.0845H42.9602C43.3972 21.0845 43.6508 20.8657 43.7199 20.427L45.1355 11.3927C45.1582 11.2541 45.1238 11.1275 45.032 11.012C44.9398 10.8969 44.8249 10.839 44.687 10.839ZM40.1809 17.6753C39.5937 18.2414 38.8741 18.5234 38.0229 18.5234C37.3549 18.5234 36.8197 18.3391 36.4172 17.9697C36.0141 17.6013 35.8128 17.0936 35.8128 16.4467C35.8128 15.5935 36.1004 14.8718 36.6762 14.2834C37.2513 13.6949 37.9649 13.4007 38.817 13.4007C39.4612 13.4007 39.9964 13.5912 40.4227 13.9717C40.8482 14.3526 41.0614 14.8776 41.0614 15.547C41.0613 16.4008 40.7679 17.1106 40.1809 17.6753Z" fill="#003087"/>
<path d="M70.9467 6.66729C70.0604 6.0564 68.9039 5.75021 67.4766 5.75021H61.9863C61.5259 5.75021 61.2725 5.96954 61.2268 6.40776L58.9823 20.5299C58.959 20.6686 58.9936 20.7955 59.086 20.9108C59.1773 21.0264 59.2929 21.0838 59.4311 21.0838H62.2623C62.5385 21.0838 62.7226 20.934 62.8149 20.6339L63.4365 16.6189C63.4594 16.4344 63.5399 16.2844 63.6783 16.1689C63.8164 16.0535 63.9889 15.9781 64.1963 15.9436C64.4032 15.9093 64.5986 15.892 64.7832 15.892C64.9673 15.892 65.1857 15.9037 65.4391 15.9267C65.6922 15.9496 65.8539 15.961 65.9225 15.961C67.9025 15.961 69.4559 15.4018 70.5841 14.2822C71.7121 13.1633 72.276 11.6116 72.276 9.62662C72.2761 8.26518 71.8327 7.2787 70.9467 6.66697V6.66729ZM67.4076 12.3613C66.9011 12.7074 66.1413 12.8804 65.1287 12.8804L64.0236 12.9151L64.6106 9.21125C64.6562 8.95775 64.8059 8.83058 65.0594 8.83058H65.6807C66.1872 8.83058 66.59 8.85375 66.8897 8.89977C67.1884 8.94611 67.4766 9.09011 67.7528 9.33228C68.0292 9.57467 68.1672 9.92677 68.1672 10.3881C68.1672 11.3576 67.9136 12.0149 67.4076 12.3613Z" fill="#009CDE"/>
</svg>
