<svg width="89" height="21" viewBox="0 0 89 21" fill="none" xmlns="http://www.w3.org/2000/svg">
<path d="M34.9307 7.49722H37.7058V16.2329H34.9307V7.49722Z" fill="#E60023"/>
<path d="M38.2852 7.49722H40.9581V8.69154H41.0091C41.6561 7.75311 42.4902 7.24133 43.6991 7.24133C45.6058 7.24133 46.7294 8.60624 46.7294 10.5513V16.2328H43.9544V11.1144C43.9544 10.193 43.4947 9.56163 42.5924 9.56163C41.6731 9.56163 41.0602 10.3295 41.0602 11.4043V16.2328H38.2852V7.49722Z" fill="#E60023"/>
<path d="M37.9828 5.16009C37.9828 4.2387 37.2375 3.49186 36.3182 3.49186C35.3989 3.49186 34.6536 4.2387 34.6536 5.16009C34.6536 6.0814 35.3989 6.82824 36.3182 6.82824C37.2375 6.82824 37.9828 6.0814 37.9828 5.16009Z" fill="#E60023"/>
<path d="M66.2465 7.37104C66.1673 7.3639 66.0765 7.36072 65.9703 7.36072C64.9148 7.36072 64.1998 7.82137 63.5868 8.86214H63.5358V7.49722H60.8799V16.2328H63.6549V12.3086C63.6549 10.4904 64.6597 9.6478 66.2465 9.79481V7.37104Z" fill="#E60023"/>
<path d="M79.8645 10.7218C78.7579 10.5171 77.7705 10.4318 77.7705 9.81763C77.7705 9.2716 78.2983 9.01571 78.9792 9.01571C79.7453 9.01571 80.2731 9.25456 80.3752 10.0394H82.929C82.7928 8.31621 81.4648 7.24126 78.9964 7.24126C76.9363 7.24126 75.2338 8.19674 75.2338 10.0394C75.2338 12.0867 76.8512 12.4963 78.3664 12.7522C79.524 12.957 80.5796 13.0423 80.5796 13.8271C80.5796 14.3902 80.0518 14.6973 79.2176 14.6973C78.3807 14.6973 77.8271 14.3424 77.6574 13.6224H75.0132C75.2078 15.4182 76.7807 16.5058 79.2346 16.5058C81.5159 16.5058 83.2013 15.5162 83.2013 13.6054C83.2013 11.3702 81.3967 10.9778 79.8645 10.7218Z" fill="#E60023"/>
<path d="M70.5512 9.2204C71.4535 9.2204 72.1004 9.88582 72.2026 10.9267H68.7636C68.9509 9.88582 69.4957 9.2204 70.5512 9.2204ZM70.7044 14.4924C69.5637 14.4924 68.9169 13.7589 68.7466 12.5816H75.0117C75.0287 10.8072 74.518 9.28866 73.4794 8.33327C72.7304 7.65081 71.743 7.24128 70.5 7.24128C67.8443 7.24128 66.0227 9.23745 66.0227 11.848C66.0227 14.4924 67.7932 16.4888 70.6703 16.4888C71.7769 16.4888 72.6622 16.1987 73.3943 15.6868C74.1604 15.1579 74.6712 14.4072 74.8584 13.6224H72.1515C71.9131 14.1684 71.4365 14.4924 70.7044 14.4924Z" fill="#E60023"/>
<path d="M88.0887 14.1729C87.9601 14.178 87.7875 14.1855 87.6289 14.1855C87.0329 14.1855 86.6585 14.0148 86.6585 13.3323V9.23749H88.0887V7.49721H86.6585V4.73321H83.9515V7.49721H83.0998V9.23749H83.9515V13.9295C83.9515 15.8064 85.1092 16.3352 86.7266 16.3352C87.3437 16.3352 87.8101 16.2889 88.0887 16.2344V14.1729Z" fill="#E60023"/>
<path d="M51.6851 14.1768C51.5744 14.1812 51.4466 14.1855 51.3272 14.1855C50.7314 14.1855 50.3568 14.0148 50.3568 13.3323V9.23748H51.6851V7.49721H50.3568V4.7332H47.6499V7.49721H46.7473V9.23748H47.6499V13.9295C47.6499 15.8064 48.8075 16.3352 50.4249 16.3352C50.9721 16.3352 51.4006 16.2987 51.6851 16.2525V14.1768Z" fill="#E60023"/>
<path d="M57.7296 10.9267C57.6274 9.88588 56.9804 9.22038 56.0781 9.22038C55.0226 9.22038 54.4778 9.88588 54.2905 10.9267H57.7296ZM51.5496 11.848C51.5496 9.23751 53.3712 7.24134 56.0271 7.24134C57.2698 7.24134 58.2573 7.65078 59.0064 8.33324C60.0449 9.28872 60.5556 10.8072 60.5386 12.5816H54.2736C54.4437 13.7588 55.0907 14.4925 56.2314 14.4925C56.9634 14.4925 57.4401 14.1684 57.6784 13.6224H60.3853C60.198 14.4072 59.6874 15.1579 58.9212 15.6869C58.1892 16.1987 57.3039 16.4887 56.1973 16.4887C53.3201 16.4887 51.5496 14.4925 51.5496 11.848Z" fill="#E60023"/>
<path d="M30.1114 9.76646C31.201 9.76646 31.8139 9.11808 31.8139 8.14548C31.8139 7.17304 31.184 6.57588 30.1114 6.57588H27.9832V9.76646H30.1114ZM25.1738 4.03368H29.9928C31.4738 4.03368 32.5634 4.44312 33.3125 5.15975C34.0957 5.89334 34.5383 6.9342 34.5383 8.16261C34.5383 10.5 32.921 12.1551 30.4183 12.1551H27.9832V16.2328H25.1738V4.03368Z" fill="#E60023"/>
<path d="M21.3656 10.5C21.3656 16.299 16.6748 21 10.8884 21C5.10211 21 0.411316 16.299 0.411316 10.5C0.411316 4.70095 5.10211 0 10.8884 0C16.6748 0 21.3656 4.70095 21.3656 10.5Z" fill="white"/>
<path d="M10.8884 0C5.10211 0 0.411316 4.70095 0.411316 10.5C0.411316 14.9483 3.17168 18.7497 7.06908 20.2796C6.97753 19.4489 6.89474 18.1712 7.10541 17.2643C7.29581 16.4448 8.33397 12.0451 8.33397 12.0451C8.33397 12.0451 8.02059 11.4161 8.02059 10.4862C8.02059 9.02618 8.86499 7.93617 9.91638 7.93617C10.8103 7.93617 11.242 8.60874 11.242 9.41522C11.242 10.3161 10.6697 11.6631 10.3743 12.9113C10.1275 13.9563 10.8973 14.8086 11.9258 14.8086C13.7879 14.8086 15.2194 12.8409 15.2194 10.0004C15.2194 7.48637 13.4168 5.72862 10.843 5.72862C7.86187 5.72862 6.11208 7.96948 6.11208 10.2853C6.11208 11.1878 6.45896 12.1555 6.89182 12.6815C6.97744 12.7855 6.98998 12.8766 6.96447 12.9827C6.88495 13.3143 6.7082 14.0275 6.6735 14.1735C6.62781 14.3657 6.52166 14.4065 6.32309 14.3139C5.01457 13.7035 4.19644 11.7861 4.19644 10.2462C4.19644 6.93396 6.59775 3.89212 11.1191 3.89212C14.7536 3.89212 17.5781 6.48768 17.5781 9.95644C17.5781 13.5751 15.3014 16.4874 12.1414 16.4874C11.0797 16.4874 10.0816 15.9347 9.73998 15.2818C9.73998 15.2818 9.21463 17.2865 9.08726 17.7778C8.85074 18.6898 8.21219 19.833 7.78509 20.5305C8.76537 20.8346 9.80837 21 10.8884 21C16.6748 21 21.3656 16.299 21.3656 10.5C21.3656 4.70095 16.6748 0 10.8884 0Z" fill="#E60023"/>
</svg>
